<svg xmlns="http://www.w3.org/2000/svg" viewBox="0 0 360 360"><defs><style>.cls-1{fill:#fff;}.cls-2{fill:none;stroke:#fff;stroke-miterlimit:10;stroke-width:2px;}</style></defs><title>Artboard 1</title><g id="Layer_2" data-name="Layer 2"><path class="cls-1" d="M59.74,161.12v3.72H51.3v15.88H47.22V144H61.79v3.72H51.3v13.37Z"/><path class="cls-1" d="M71.54,172.08c0,3.3,1.31,5.29,4.3,5.29s4.25-2,4.25-5.29V144h3.83v27.83c0,5.56-2.57,9.28-8.23,9.28s-8.18-3.72-8.18-9.28V144h4Z"/><path class="cls-1" d="M90.57,180.73V144h4.09v33h10.48v3.72Z"/><path class="cls-1" d="M110.85,180.73V144h4.09v33h10.48v3.72Z"/><path class="cls-1" d="M154.94,160.28V164h-9V177h11v3.72h-15.1V144H157v3.72H146v12.53Z"/><path class="cls-1" d="M172.5,164.9l-6.13,15.83h-3.88l7.39-18.92L163,144h4.25l5.66,14.68L178.58,144h3.83l-6.87,17.77,7.34,18.92h-4.3Z"/><path class="cls-1" d="M196.82,144c5.77,0,8.23,3.41,8.23,9v4.4c0,5.82-2.73,8.86-8.54,8.86h-3.62v14.47H188.8V144Zm-.31,18.55c3,0,4.51-1.42,4.51-4.93v-4.87c0-3.35-1.21-5-4.19-5h-3.93v14.83Z"/><path class="cls-1" d="M210.55,152.89c0-5.61,2.78-9.22,8.39-9.22s8.44,3.62,8.44,9.22v19c0,5.56-2.78,9.22-8.44,9.22s-8.39-3.67-8.39-9.22Zm4,19.18c0,3.35,1.42,5.29,4.35,5.29s4.35-1.94,4.35-5.29V152.68c0-3.3-1.36-5.29-4.35-5.29s-4.35,2-4.35,5.29Z"/><path class="cls-1" d="M249.76,152.84v1h-3.88v-1.21c0-3.3-1.26-5.24-4.19-5.24s-4.19,1.94-4.19,5.19c0,8.23,12.32,9,12.32,19.34,0,5.56-2.67,9.17-8.28,9.17s-8.23-3.62-8.23-9.17v-2.1h3.83v2.31c0,3.3,1.36,5.24,4.3,5.24s4.3-1.94,4.3-5.24c0-8.18-12.26-9-12.26-19.29,0-5.66,2.62-9.17,8.12-9.17S249.76,147.29,249.76,152.84Z"/><path class="cls-1" d="M259.88,172.08c0,3.3,1.31,5.29,4.3,5.29s4.25-2,4.25-5.29V144h3.83v27.83c0,5.56-2.57,9.28-8.23,9.28s-8.18-3.72-8.18-9.28V144h4Z"/><path class="cls-1" d="M287.08,144c5.77,0,8.18,2.94,8.18,8.39v3c0,4-1.42,6.55-4.56,7.55,3.35,1,4.61,3.72,4.61,7.65v5.71a9.19,9.19,0,0,0,.73,4.4h-4.14a9.61,9.61,0,0,1-.68-4.46V170.5c0-4.14-1.94-5.45-5.35-5.45H283v15.67h-4.09V144Zm-1,17.3c3.25,0,5.19-1,5.19-5v-3.51c0-3.3-1.21-5-4.25-5h-4v13.58Z"/><path class="cls-1" d="M315.23,160.28V164h-9V177h11v3.72H302.18V144h15.09v3.72h-11v12.53Z"/><path class="cls-1" d="M50.58,195.49c3.19,0,4.43,2,4.43,5v2.24c0,3.28-1.51,4.9-4.78,4.9H47.66v8.5H46.3V195.49Zm-.35,10.92c2.39,0,3.42-1.06,3.42-3.57v-2.42c0-2.24-.77-3.69-3.07-3.69H47.66v9.68Z"/><path class="cls-1" d="M73.17,206.44v9.71H71.81V195.49h1.36v9.71H79.6v-9.71H81v20.67H79.6v-9.71Z"/><path class="cls-1" d="M98,200.54c0-3,1.39-5.23,4.52-5.23s4.58,2.21,4.58,5.23v10.57c0,3-1.39,5.23-4.58,5.23S98,214.12,98,211.11Zm1.36,10.66c0,2.24.89,3.9,3.16,3.9s3.22-1.65,3.22-3.9V200.45c0-2.24-.92-3.9-3.22-3.9s-3.16,1.65-3.16,3.9Z"/><path class="cls-1" d="M127.61,216.15V196.73h-4.19v-1.24h9.77v1.24H129v19.43Z"/><path class="cls-1" d="M149.55,200.54c0-3,1.39-5.23,4.52-5.23s4.58,2.21,4.58,5.23v10.57c0,3-1.39,5.23-4.58,5.23s-4.52-2.21-4.52-5.23Zm1.36,10.66c0,2.24.89,3.9,3.16,3.9s3.22-1.65,3.22-3.9V200.45c0-2.24-.92-3.9-3.22-3.9s-3.16,1.65-3.16,3.9Z"/><path class="cls-1" d="M184.47,200.54v1.54h-1.3v-1.62c0-2.21-.86-3.9-3.13-3.9s-3.13,1.68-3.13,3.9v10.75c0,2.21.86,3.87,3.13,3.87s3.13-1.65,3.13-3.87v-4.46h-2.75V205.5h4v5.61c0,3-1.3,5.23-4.46,5.23s-4.46-2.24-4.46-5.23V200.54c0-3,1.3-5.23,4.46-5.23S184.47,197.55,184.47,200.54Z"/><path class="cls-1" d="M205.82,195.49c3.16,0,4.43,1.74,4.43,4.66V202c0,2.42-.95,3.81-3,4.28,2.13.47,3,2,3,4.22v3.22a4.63,4.63,0,0,0,.5,2.48h-1.42a4.86,4.86,0,0,1-.44-2.48v-3.25c0-2.75-1.51-3.51-3.87-3.51h-2.16v9.24h-1.36V195.49Zm-.77,10.19c2.42,0,3.84-.68,3.84-3.46v-1.95c0-2.21-.86-3.54-3.1-3.54h-2.92v8.95Z"/><path class="cls-1" d="M229.64,211.58l-1,4.58h-1.24l4.52-20.7h2l4.61,20.7h-1.36l-1-4.58Zm.21-1.18h6l-3-13.37Z"/><path class="cls-1" d="M259.58,195.49c3.19,0,4.43,2,4.43,5v2.24c0,3.28-1.51,4.9-4.78,4.9h-2.57v8.5H255.3V195.49Zm-.35,10.92c2.39,0,3.42-1.06,3.42-3.57v-2.42c0-2.24-.77-3.69-3.07-3.69h-2.92v9.68Z"/><path class="cls-1" d="M282.17,206.44v9.71h-1.36V195.49h1.36v9.71h6.44v-9.71H290v20.67H288.6v-9.71Z"/><path class="cls-1" d="M311.37,208.21l-4.64-12.73h1.42l4,10.86,4-10.86h1.33l-4.67,12.73v7.94h-1.36Z"/><rect class="cls-2" x="21.51" y="114" width="320.67" height="131.99"/></g></svg>